<svg xmlns="http://www.w3.org/2000/svg" version="1.1" xmlns:xlink="http://www.w3.org/1999/xlink" xmlns:svgjs="http://svgjs.dev/svgjs" width="1500" height="1500" viewBox="0 0 1500 1500"><rect width="1500" height="1500" fill="#ed2647"></rect><g transform="matrix(0.6666666666666666,0,0,0.6666666666666666,250.00007343750008,187.66666666666674)"><svg viewBox="0 0 320 360" data-background-color="#ed2647" preserveAspectRatio="xMidYMid meet" height="1687" width="1500" xmlns="http://www.w3.org/2000/svg" xmlns:xlink="http://www.w3.org/1999/xlink"><g id="tight-bounds" transform="matrix(1,0,0,1,0.000023499999997511622,0)"><svg viewBox="0 0 320 360" height="360" width="320"><g><svg></svg></g><g><svg viewBox="0 0 320 360" height="360" width="320"><g><path transform="translate(-74.99272,-51.79039) scale(4.65793,4.65793)" d="M20.6 59.9l0.8 1-0.4-1.3c-0.1-0.6-0.8 0.1-0.4 0.3M21.5 59.3c0.3 0.5 0.6 1 0.6 1.5 0 0.7 0.6 1 1.1 1.2-0.7-0.8-1.1-3-1.7-2.7M59.9 16.9c1.7 0 3.3-0.2 5.1 0.2 4.4 1.1 8.1 3.3 10.6 6.4l7 11.2c0.3 2.8 0.9 5.9 0.8 9.3 0.7 0 0.6-1 1.4-1.2-0.8 2-1.2 4.5-1.4 7.4-0.5-1.6 0-4 0.1-5.3-0.7 1.1-1.1 0.3-1.1-0.2 0.1-0.8-0.3-0.7-0.6-1-1.1-1-1.8-2.1-2.6-3.8 0.5-1.3 0.6-3.2-1-4.2-0.5-0.3-1.1-0.8-1.4-1.6-0.4-1.1-1.1-2.4-0.9-4.1 0.1-0.5-1.5 1.1-2.4 0.4-3.9-2.7-7.8-5.8-12.5-8.4-2.5 0-4.3-0.9-5.2-2-0.8-1-0.2-2.3 1-2.4 0.7 0 1.5-0.2 2.1 0.2 0.1-0.4 0.5-0.9 1-0.9M50 14.6l0.2 0.1c1 0.2 1.5 1.6 2.6 1.1 0 0.7 0.1 1.4-0.1 1.9-0.3 0.8-1.2 0.8-1.9 0.8-6.7-0.4-10.6 2.4-14.7 4.8-1.1 0.7-2.3 1.2-3.2 2.1-4.3 4-9 7.7-10.1 15.1l-0.9 8.2c-0.1 0.9-1.1 1.8-0.9 2.9l0.7 4.9c-0.7-0.7-1.1 0.2-0.9 0.6 0.1 0.3 0.5 1.3 1.1 0.4 0.8 1.5 1.6 4.4 2.7 5.7 3.4 4 7.8 7.6 11.4 11.2 0.9-0.2 1.6-0.2 1.8-0.8 0.3 0.6-0.3 1.2-0.8 1.3 1.6 1 3.4 1.9 5.8 2.1 3.1 0.2 6 0.7 8.7 1.4 1.4-0.4 2.8-0.6 4.3-0.7 0.5 0 0.8-0.8 1.4-1l0.1-1c0.6 0.9 0.5-0.3 0.1-0.9 0.7 0.6 0.9 1.1 1.2 1.5 0-0.3 0.8-1.4 0.8-0.1l0.2-1.3c0.3-0.2 0.4 1.1 0.7 0.2 0.3-0.9 0.9-0.2 1.5-0.5-0.2 0.4-0.1 1.2 0.6 0.7l0.8-0.7c0.5 1.2 1.3 0.7 1.7 0.5 4.4-2.8 8.8-6.1 13-9.4l-0.1 1.3 0.5-1.6c0.5 0.5 0.9 0.1 1.1-0.2 0.6-1 1.4-2 2.7-2.9-1.6 4.3-3.5 7.7-5.9 10.5l-1 1.2c0 0.7-0.2 1.6-1 1.7-0.4 0.1-1.2-0.2-1.8 0.4-0.3 0.4 0.7 1.2-0.1 0.6-0.7-0.5-1.4 0-2.2 0.2-0.6 0.2 0.4 0.8 0.6 1.2 0.2 0.4 0.4 0.8 0.3 1.3l-1.1-1.2c-1.3 0.7-2.1 2-3.2 3-0.5 0.4-0.3 1.1-0.3 1.7-0.7 0-1.5-0.2-1.9 0.2-0.3 0.4-0.2 1-0.2 1.6-1-0.1-1.1-1.6-2-1.3-0.9 0.2-1.9 0.3-2.7 0.8 0.6 1.2-1 0.5-0.8 0.7-1.5-0.9-2.8-1.6-4.4-1-3.4-1.1-7.6-0.6-10.7-0.2 0-0.5 0.1-1-0.1-1.1-0.2 0.5-0.8 0.3-0.7 0.3-1.9-1.3-3.8-2.1-5.8-3.2-1.8 0.2-3.5-0.7-4-1.2-1.4-1.3-3-0.6-4.3-0.9-2.8-0.7-3.8-3.6-4.1-5.6-0.2-1-1-1.4-1.3-1.3-1.3-4.2-3.3-8-4.9-11.9-0.4-1-0.3-2-0.3-3.1 0.5 0.2 1 0.1 0.9-0.6-0.5-3.3-1.7-5.8-3-8.2 0.7-3.4 0.8-7.4 2.4-10.4 1.4-2.7 4-4.1 5.8-6.4 0.6-0.8 0.6-1.9 1.2-2.6 2-2 4-4.1 6.2-5.9 1-0.8 2.2 0 3.7-0.3 0.5-1.8 2.5-3.4 4.4-2.9 0.8 0.2 2.4-1.9 2.9-2.1 0.8-0.3 0.4 0.8 0.4 1.5 1.9-1.5 4.5-2.3 6.9-3.2" fill="#8d021f" fill-rule="nonzero" stroke="none" stroke-width="1" stroke-linecap="butt" stroke-linejoin="miter" stroke-miterlimit="10" stroke-dasharray="" stroke-dashoffset="0" font-family="none" font-weight="none" font-size="none" text-anchor="none" style="mix-blend-mode: normal" data-fill-palette-color="tertiary"></path></g><g transform="matrix(1,0,0,1,120.21020568073357,90)"><svg viewBox="0 0 79.57958863853285 180" height="180" width="79.57958863853285"><g><svg viewBox="0 0 79.57958863853285 180" height="180" width="79.57958863853285"><g><svg viewBox="0 0 128.35007173601147 290.3132990222001" height="180" width="79.57958863853285"><g transform="matrix(1,0,0,1,0,110.31329902220011)"><svg viewBox="0 0 128.35007173601147 180" height="180" width="128.35007173601147"><g id="textblocktransform"><svg viewBox="0 0 128.35007173601147 180" height="180" width="128.35007173601147" id="textblock"><g><svg viewBox="0 0 128.35007173601147 180" height="180" width="128.35007173601147"><g transform="matrix(1,0,0,1,0,0)"><svg width="128.35007173601147" viewBox="3.85 -34.85 24.849999999999998 34.85" height="180" data-palette-color="#8d021f"><path d="M28.7 0L22.75 0 8.4-15.9 8.4 0 3.85 0 3.85-34.85 8.4-34.85 8.4-18.7 22.8-34.85 28.55-34.85 12.75-17.4 28.7 0Z" opacity="1" transform="matrix(1,0,0,1,0,0)" fill="#8d021f" class="wordmark-text-0" data-fill-palette-color="primary" id="text-0"></path></svg></g></svg></g></svg></g></svg></g><g transform="matrix(1,0,0,1,24.514863701578193,0)"><svg viewBox="0 0 79.32034433285509 84.0469790222001" height="84.0469790222001" width="79.32034433285509"><g><svg xmlns="http://www.w3.org/2000/svg" xmlns:xlink="http://www.w3.org/1999/xlink" version="1.1" baseProfile="tiny" x="0" y="0" viewBox="3.2840745016431585 0.49954218862582234 93.43192549835685 98.99945781137419" overflow="scroll" xml:space="preserve" height="84.0469790222001" width="79.32034433285509" class="icon-icon-0" data-fill-palette-color="accent" id="icon-0"><path d="M70.536 58.215c-4.317 0-7.816 3.499-7.816 7.813 0 4.316 3.499 7.812 7.816 7.812 4.313 0 7.813-3.495 7.813-7.812C78.35 61.714 74.85 58.215 70.536 58.215zM70.536 70.439c-2.436 0-4.411-1.977-4.411-4.412 0-2.437 1.976-4.406 4.411-4.406 2.432 0 4.407 1.97 4.407 4.406C74.943 68.463 72.968 70.439 70.536 70.439zM70.536 39.848c-14.461 0-26.181 11.723-26.181 26.18 0 14.461 11.72 26.179 26.181 26.179 14.458 0 26.18-11.718 26.18-26.179C96.716 51.57 84.994 39.848 70.536 39.848zM45.381 70.357l15.15-2.608c0.146 0.831 0.385 1.626 0.718 2.371l-14.071 6.2C46.349 74.438 45.737 72.443 45.381 70.357zM70.536 91.552c-7.943 0-15.054-3.646-19.735-9.355l11.886-9.736c1.861 2.269 4.688 3.719 7.85 3.719V91.552zM70.536 75.581c-5.279 0-9.559-4.273-9.559-9.554 0-5.275 4.279-9.554 9.559-9.554 5.276 0 9.555 4.278 9.555 9.554C80.091 71.308 75.813 75.581 70.536 75.581zM58.719 89.393l-37.586 8.979v-69.71l6.649 7.341c0.095 0.104 0.229 0.162 0.368 0.162 0.022 0 0.042-0.001 0.064-0.004l48.322-6.24v10.621c0.336 0.077 0.669 0.162 0.996 0.253V29.791l8.606-1.111c0.199-0.024 0.362-0.167 0.418-0.36 0.052-0.193-0.016-0.4-0.171-0.524l-8.816-6.951 6.102-15.282c0.05-0.135 0.042-0.286-0.022-0.414-0.065-0.127-0.185-0.22-0.328-0.255L66.4 0.846c-0.214-0.053-0.439 0.047-0.549 0.242l-6.57 11.826-1.86-11.992c-0.037-0.263-0.28-0.446-0.541-0.42L6.461 5.805C6.312 5.82 6.179 5.902 6.096 6.028 6.014 6.152 5.994 6.308 6.04 6.451l1.011 3.176-3.08-1.259c-0.183-0.074-0.39-0.035-0.532 0.1C3.296 8.604 3.247 8.809 3.313 8.994l4.383 12.373v68.145c0 0.158 0.074 0.303 0.197 0.396l12.337 9.376c0.027 0.042 0.06 0.075 0.098 0.108 0.088 0.067 0.198 0.107 0.31 0.107 0.038 0 0.076-0.005 0.114-0.015l39.415-9.416C59.676 89.862 59.193 89.636 58.719 89.393zM66.538 1.901l15.99 3.826L76.75 20.209l-17.038-6.014L66.538 1.901zM59.486 15.172l15.002 5.293-15.002 1.87V15.172zM76.44 21.224l8.399 6.62L28.344 35.14l-6.088-6.722 36.794-5.025L76.44 21.224zM4.623 9.71l10.443 4.271 4.66 13.087L8.602 20.936 4.623 9.71zM20.138 97.967L8.693 89.268V22.124l11.445 6.306V97.967zM17.928 19.048l-2-5.609c-0.047-0.135-0.15-0.24-0.28-0.293l-7.397-3.028L7.172 6.73l49.341-5.187 1.905 12.296L17.928 19.048zM17.246 39.61c0.234 0.143 0.307 0.451 0.164 0.685-0.094 0.154-0.256 0.238-0.425 0.238-0.088 0-0.177-0.025-0.259-0.075l-6.253-3.82c-0.234-0.144-0.31-0.448-0.167-0.682 0.144-0.237 0.451-0.31 0.685-0.167L17.246 39.61zM10.309 31.183c0.145-0.232 0.453-0.302 0.686-0.157l6.786 4.218c0.233 0.145 0.303 0.453 0.158 0.686-0.094 0.152-0.255 0.235-0.422 0.235-0.089 0-0.18-0.023-0.261-0.074l-6.786-4.222C10.236 31.724 10.164 31.418 10.309 31.183zM28.207 52.795l22.941-4.362c-0.354 0.392-0.697 0.797-1.029 1.209l-21.321 4.056v5.849C35 59.512 39.875 62.71 44.362 66.56c0.123 6.265 2.449 11.992 6.235 16.437l-22.206 4.22c-0.03 0.006-0.063 0.009-0.093 0.009-0.116 0-0.227-0.042-0.316-0.115-0.116-0.095-0.183-0.236-0.183-0.383V53.284C27.801 53.045 27.972 52.843 28.207 52.795zM10.3 81.257c0.137-0.242 0.439-0.324 0.678-0.186l6.254 3.565c0.239 0.133 0.321 0.438 0.186 0.68-0.091 0.158-0.259 0.249-0.433 0.249-0.083 0-0.167-0.023-0.247-0.063l-6.252-3.566C10.248 81.797 10.163 81.491 10.3 81.257zM9.925 51.981l7.333 4.463c0.08 0.052 0.169 0.077 0.258 0.077 0.083 0 0.169-0.021 0.244-0.067 0.158-0.088 0.255-0.252 0.255-0.432V44.974c0-0.175-0.093-0.34-0.245-0.429l-7.332-4.321c-0.154-0.09-0.344-0.092-0.5-0.004-0.156 0.09-0.251 0.254-0.251 0.433v10.908C9.687 51.732 9.777 51.892 9.925 51.981zM10.683 41.522l6.336 3.735v9.879l-6.336-3.856V41.522zM17.404 90.379c-0.096 0.15-0.254 0.229-0.419 0.229-0.092 0-0.186-0.027-0.268-0.078l-6.255-4.042c-0.23-0.149-0.297-0.459-0.148-0.686 0.149-0.233 0.459-0.298 0.688-0.151l6.254 4.039C17.488 89.843 17.553 90.152 17.404 90.379z" fill="#5e1914" data-fill-palette-color="accent"></path></svg></g></svg></g><g></g></svg></g></svg></g></svg></g></svg></g><defs></defs></svg><rect width="320" height="360" fill="none" stroke="none" visibility="hidden"></rect></g></svg></g></svg>